%TF.GenerationSoftware,KiCad,Pcbnew,8.0.6*%
%TF.CreationDate,2024-10-25T11:33:00+01:00*%
%TF.ProjectId,ac-freedom_to-esphome,61632d66-7265-4656-946f-6d5f746f2d65,rev?*%
%TF.SameCoordinates,Original*%
%TF.FileFunction,Copper,L1,Top*%
%TF.FilePolarity,Positive*%
%FSLAX46Y46*%
G04 Gerber Fmt 4.6, Leading zero omitted, Abs format (unit mm)*
G04 Created by KiCad (PCBNEW 8.0.6) date 2024-10-25 11:33:00*
%MOMM*%
%LPD*%
G01*
G04 APERTURE LIST*
G04 Aperture macros list*
%AMRoundRect*
0 Rectangle with rounded corners*
0 $1 Rounding radius*
0 $2 $3 $4 $5 $6 $7 $8 $9 X,Y pos of 4 corners*
0 Add a 4 corners polygon primitive as box body*
4,1,4,$2,$3,$4,$5,$6,$7,$8,$9,$2,$3,0*
0 Add four circle primitives for the rounded corners*
1,1,$1+$1,$2,$3*
1,1,$1+$1,$4,$5*
1,1,$1+$1,$6,$7*
1,1,$1+$1,$8,$9*
0 Add four rect primitives between the rounded corners*
20,1,$1+$1,$2,$3,$4,$5,0*
20,1,$1+$1,$4,$5,$6,$7,0*
20,1,$1+$1,$6,$7,$8,$9,0*
20,1,$1+$1,$8,$9,$2,$3,0*%
G04 Aperture macros list end*
%TA.AperFunction,ComponentPad*%
%ADD10R,1.700000X1.700000*%
%TD*%
%TA.AperFunction,ComponentPad*%
%ADD11O,1.700000X1.700000*%
%TD*%
%TA.AperFunction,ComponentPad*%
%ADD12C,1.700000*%
%TD*%
%TA.AperFunction,SMDPad,CuDef*%
%ADD13RoundRect,0.200000X0.275000X-0.200000X0.275000X0.200000X-0.275000X0.200000X-0.275000X-0.200000X0*%
%TD*%
%TA.AperFunction,SMDPad,CuDef*%
%ADD14R,2.500000X1.000000*%
%TD*%
%TA.AperFunction,SMDPad,CuDef*%
%ADD15R,1.000000X1.800000*%
%TD*%
%TA.AperFunction,SMDPad,CuDef*%
%ADD16RoundRect,0.200000X-0.275000X0.200000X-0.275000X-0.200000X0.275000X-0.200000X0.275000X0.200000X0*%
%TD*%
%TA.AperFunction,ComponentPad*%
%ADD17C,2.000000*%
%TD*%
%TA.AperFunction,ViaPad*%
%ADD18C,0.600000*%
%TD*%
%TA.AperFunction,Conductor*%
%ADD19C,0.400000*%
%TD*%
%TA.AperFunction,Conductor*%
%ADD20C,0.500000*%
%TD*%
%TA.AperFunction,Conductor*%
%ADD21C,0.300000*%
%TD*%
%TA.AperFunction,Profile*%
%ADD22C,0.050000*%
%TD*%
G04 APERTURE END LIST*
D10*
%TO.P,J2,1,Pin_1*%
%TO.N,VDD*%
X13000000Y2500000D03*
D11*
%TO.P,J2,2,Pin_2*%
%TO.N,GND*%
X15540000Y2500000D03*
%TO.P,J2,3,Pin_3*%
%TO.N,/UART_RX*%
X18080000Y2500000D03*
%TO.P,J2,4,Pin_4*%
%TO.N,/UART_TX*%
X20620000Y2500000D03*
%TD*%
D12*
%TO.P,J1,1,Pin_1*%
%TO.N,VCC*%
X8011400Y17120000D03*
%TO.P,J1,2,Pin_2*%
%TO.N,VDD*%
X5471400Y17120000D03*
%TO.P,J1,3,Pin_3*%
%TO.N,GND*%
X2931400Y17120000D03*
%TD*%
D13*
%TO.P,R2,1*%
%TO.N,VCC*%
X15700000Y15175000D03*
%TO.P,R2,2*%
%TO.N,Net-(U1-EN)*%
X15700000Y16825000D03*
%TD*%
D14*
%TO.P,U1,1,~{RST}*%
%TO.N,Net-(U1-~{RST})*%
X3900000Y35500000D03*
%TO.P,U1,2,ADC*%
%TO.N,unconnected-(U1-ADC-Pad2)*%
X3900000Y33500000D03*
%TO.P,U1,3,EN*%
%TO.N,Net-(U1-EN)*%
X3900000Y31500000D03*
%TO.P,U1,4,GPIO16*%
%TO.N,unconnected-(U1-GPIO16-Pad4)*%
X3900000Y29500000D03*
%TO.P,U1,5,GPIO14*%
%TO.N,unconnected-(U1-GPIO14-Pad5)*%
X3900000Y27500000D03*
%TO.P,U1,6,GPIO12*%
%TO.N,unconnected-(U1-GPIO12-Pad6)*%
X3900000Y25500000D03*
%TO.P,U1,7,GPIO13*%
%TO.N,unconnected-(U1-GPIO13-Pad7)*%
X3900000Y23500000D03*
%TO.P,U1,8,VCC*%
%TO.N,VCC*%
X3900000Y21500000D03*
D15*
%TO.P,U1,9,CS0*%
%TO.N,unconnected-(U1-CS0-Pad9)*%
X6500000Y20000000D03*
%TO.P,U1,10,MISO*%
%TO.N,unconnected-(U1-MISO-Pad10)*%
X8500000Y20000000D03*
%TO.P,U1,11,GPIO9*%
%TO.N,unconnected-(U1-GPIO9-Pad11)*%
X10500000Y20000000D03*
%TO.P,U1,12,GPIO10*%
%TO.N,unconnected-(U1-GPIO10-Pad12)*%
X12500000Y20000000D03*
%TO.P,U1,13,MOSI*%
%TO.N,unconnected-(U1-MOSI-Pad13)*%
X14500000Y20000000D03*
%TO.P,U1,14,SCLK*%
%TO.N,unconnected-(U1-SCLK-Pad14)*%
X16500000Y20000000D03*
D14*
%TO.P,U1,15,GND*%
%TO.N,GND*%
X19100000Y21500000D03*
%TO.P,U1,16,GPIO15*%
%TO.N,Net-(U1-GPIO15)*%
X19100000Y23500000D03*
%TO.P,U1,17,GPIO2*%
%TO.N,unconnected-(U1-GPIO2-Pad17)*%
X19100000Y25500000D03*
%TO.P,U1,18,GPIO0*%
%TO.N,Net-(U1-GPIO0)*%
X19100000Y27500000D03*
%TO.P,U1,19,GPIO4*%
%TO.N,unconnected-(U1-GPIO4-Pad19)*%
X19100000Y29500000D03*
%TO.P,U1,20,GPIO5*%
%TO.N,unconnected-(U1-GPIO5-Pad20)*%
X19100000Y31500000D03*
%TO.P,U1,21,GPIO3/RXD*%
%TO.N,/UART_RX*%
X19100000Y33500000D03*
%TO.P,U1,22,GPIO1/TXD*%
%TO.N,/UART_TX*%
X19100000Y35500000D03*
%TD*%
D13*
%TO.P,R1,1*%
%TO.N,VCC*%
X17400000Y15175000D03*
%TO.P,R1,2*%
%TO.N,Net-(U1-~{RST})*%
X17400000Y16825000D03*
%TD*%
D16*
%TO.P,R4,1*%
%TO.N,VCC*%
X14000000Y16825000D03*
%TO.P,R4,2*%
%TO.N,GND*%
X14000000Y15175000D03*
%TD*%
%TO.P,R3,1*%
%TO.N,Net-(U1-GPIO15)*%
X19000000Y16825000D03*
%TO.P,R3,2*%
%TO.N,GND*%
X19000000Y15175000D03*
%TD*%
D17*
%TO.P,SW1,1,1*%
%TO.N,Net-(U1-GPIO0)*%
X13750000Y11450000D03*
X20250000Y11450000D03*
%TO.P,SW1,2,2*%
%TO.N,GND*%
X13750000Y6950000D03*
X20250000Y6950000D03*
%TD*%
D18*
%TO.N,/UART_RX*%
X16900000Y33300000D03*
X16900000Y5100000D03*
%TO.N,/UART_TX*%
X18200000Y5100000D03*
X17000000Y35500000D03*
%TO.N,Net-(U1-GPIO0)*%
X20900000Y27400000D03*
%TD*%
D19*
%TO.N,VCC*%
X13170000Y16820000D02*
X8311400Y16820000D01*
X15650000Y15175000D02*
X14000000Y16825000D01*
X17400000Y15175000D02*
X15700000Y15175000D01*
X13175000Y16825000D02*
X13170000Y16820000D01*
X3900000Y19500000D02*
X3900000Y21500000D01*
X4850000Y18550000D02*
X3900000Y19500000D01*
X6581400Y18550000D02*
X4850000Y18550000D01*
X15700000Y15175000D02*
X15650000Y15175000D01*
X14000000Y16825000D02*
X13175000Y16825000D01*
X8311400Y16820000D02*
X6581400Y18550000D01*
D20*
%TO.N,VDD*%
X5471400Y17011400D02*
X5560000Y17100000D01*
X7500000Y2500000D02*
X5471400Y4528600D01*
X5471400Y4528600D02*
X5471400Y17011400D01*
X13000000Y2500000D02*
X7500000Y2500000D01*
D21*
%TO.N,/UART_RX*%
X16900000Y33300000D02*
X17100000Y33500000D01*
X17100000Y33500000D02*
X19100000Y33500000D01*
X16900000Y3680000D02*
X18080000Y2500000D01*
X16900000Y5100000D02*
X16900000Y3680000D01*
%TO.N,/UART_TX*%
X17000000Y35500000D02*
X19100000Y35500000D01*
X19400000Y5100000D02*
X20620000Y3880000D01*
X18200000Y5100000D02*
X19400000Y5100000D01*
X20620000Y3880000D02*
X20620000Y2500000D01*
%TO.N,Net-(U1-~{RST})*%
X15500000Y27500000D02*
X7500000Y35500000D01*
X7500000Y35500000D02*
X3900000Y35500000D01*
X17400000Y16825000D02*
X15500000Y18725000D01*
X15500000Y18725000D02*
X15500000Y27500000D01*
%TO.N,Net-(U1-EN)*%
X7500000Y31500000D02*
X3900000Y31500000D01*
X15700000Y16825000D02*
X13500000Y19025000D01*
X13500000Y19025000D02*
X13500000Y25500000D01*
X13500000Y25500000D02*
X7500000Y31500000D01*
%TO.N,Net-(U1-GPIO15)*%
X19000000Y16825000D02*
X17400000Y18425000D01*
X18350000Y23500000D02*
X19100000Y23500000D01*
X17400000Y18425000D02*
X17400000Y22550000D01*
X17400000Y22550000D02*
X18350000Y23500000D01*
%TO.N,Net-(U1-GPIO0)*%
X19200000Y27400000D02*
X19100000Y27500000D01*
X20900000Y27400000D02*
X19200000Y27400000D01*
X13750000Y11450000D02*
X20250000Y11450000D01*
%TD*%
%TA.AperFunction,Conductor*%
%TO.N,GND*%
G36*
X22442085Y22977888D02*
G01*
X22488069Y22925283D01*
X22499500Y22873282D01*
X22499500Y624500D01*
X22479815Y557461D01*
X22427011Y511706D01*
X22375500Y500500D01*
X624500Y500500D01*
X557461Y520185D01*
X511706Y572989D01*
X500500Y624500D01*
X500500Y22778713D01*
X520185Y22845752D01*
X572989Y22891507D01*
X623961Y22902712D01*
X2063138Y22908969D01*
X2130262Y22889576D01*
X2176246Y22836971D01*
X2179859Y22828303D01*
X2206202Y22757671D01*
X2206206Y22757664D01*
X2292452Y22642455D01*
X2350145Y22599266D01*
X2392015Y22543332D01*
X2396999Y22473640D01*
X2363513Y22412317D01*
X2350145Y22400734D01*
X2350144Y22400733D01*
X2292454Y22357546D01*
X2292453Y22357544D01*
X2292452Y22357544D01*
X2206206Y22242335D01*
X2206202Y22242328D01*
X2155908Y22107482D01*
X2149501Y22047883D01*
X2149501Y22047876D01*
X2149500Y22047864D01*
X2149500Y20952129D01*
X2149501Y20952123D01*
X2155908Y20892516D01*
X2206202Y20757671D01*
X2206206Y20757664D01*
X2292452Y20642455D01*
X2292455Y20642452D01*
X2407664Y20556206D01*
X2407671Y20556202D01*
X2542517Y20505908D01*
X2542516Y20505908D01*
X2602116Y20499501D01*
X2602119Y20499500D01*
X2602127Y20499500D01*
X3075500Y20499500D01*
X3142539Y20479815D01*
X3188294Y20427011D01*
X3199500Y20375500D01*
X3199500Y19431003D01*
X3199499Y19431003D01*
X3226418Y19295677D01*
X3226421Y19295667D01*
X3279222Y19168192D01*
X3355887Y19053454D01*
X3355888Y19053453D01*
X4353169Y18056173D01*
X4386654Y17994850D01*
X4381670Y17925158D01*
X4367063Y17897369D01*
X4302669Y17805404D01*
X4248092Y17761779D01*
X4178594Y17754585D01*
X4116239Y17786108D01*
X4099519Y17805404D01*
X4046325Y17881373D01*
X3414362Y17249410D01*
X3397325Y17312993D01*
X3331499Y17427007D01*
X3238407Y17520099D01*
X3124393Y17585925D01*
X3060809Y17602962D01*
X3692773Y18234925D01*
X3692773Y18234926D01*
X3608982Y18293598D01*
X3608978Y18293600D01*
X3394892Y18393429D01*
X3394883Y18393433D01*
X3166726Y18454567D01*
X3166715Y18454569D01*
X2931402Y18475157D01*
X2931398Y18475157D01*
X2696084Y18454569D01*
X2696073Y18454567D01*
X2467916Y18393433D01*
X2467907Y18393429D01*
X2253823Y18293600D01*
X2253821Y18293599D01*
X2170026Y18234925D01*
X2170025Y18234925D01*
X2801990Y17602962D01*
X2738407Y17585925D01*
X2624393Y17520099D01*
X2531301Y17427007D01*
X2465475Y17312993D01*
X2448437Y17249409D01*
X1816474Y17881373D01*
X1816473Y17881372D01*
X1757800Y17797578D01*
X1757799Y17797576D01*
X1657970Y17583492D01*
X1657966Y17583483D01*
X1596832Y17355326D01*
X1596830Y17355315D01*
X1576243Y17120001D01*
X1576243Y17119998D01*
X1596830Y16884684D01*
X1596832Y16884673D01*
X1657966Y16656516D01*
X1657970Y16656507D01*
X1757802Y16442417D01*
X1816472Y16358626D01*
X1816473Y16358625D01*
X2448437Y16990589D01*
X2465475Y16927007D01*
X2531301Y16812993D01*
X2624393Y16719901D01*
X2738407Y16654075D01*
X2801990Y16637037D01*
X2170025Y16005073D01*
X2170026Y16005072D01*
X2253817Y15946402D01*
X2467907Y15846570D01*
X2467916Y15846566D01*
X2696073Y15785432D01*
X2696084Y15785430D01*
X2931398Y15764843D01*
X2931402Y15764843D01*
X3166715Y15785430D01*
X3166726Y15785432D01*
X3394883Y15846566D01*
X3394892Y15846570D01*
X3608979Y15946400D01*
X3608983Y15946402D01*
X3692773Y16005072D01*
X3692773Y16005073D01*
X3060810Y16637037D01*
X3124393Y16654075D01*
X3238407Y16719901D01*
X3331499Y16812993D01*
X3397325Y16927007D01*
X3414362Y16990589D01*
X4046325Y16358625D01*
X4099519Y16434594D01*
X4154096Y16478218D01*
X4223595Y16485411D01*
X4285949Y16453889D01*
X4302669Y16434594D01*
X4432905Y16248599D01*
X4432906Y16248597D01*
X4599996Y16081507D01*
X4668025Y16033872D01*
X4711649Y15979294D01*
X4720900Y15932298D01*
X4720900Y4454679D01*
X4720899Y4454679D01*
X4749740Y4309692D01*
X4749742Y4309686D01*
X4806314Y4173108D01*
X4806321Y4173096D01*
X4839212Y4123870D01*
X4888444Y4050188D01*
X4888450Y4050180D01*
X6917049Y2021584D01*
X7021584Y1917049D01*
X7021586Y1917047D01*
X7021588Y1917045D01*
X7144494Y1834922D01*
X7144509Y1834914D01*
X7175277Y1822170D01*
X7281089Y1778340D01*
X7281093Y1778339D01*
X7397243Y1755235D01*
X7397242Y1755234D01*
X7426076Y1749500D01*
X7426082Y1749500D01*
X7426083Y1749500D01*
X7573918Y1749500D01*
X11525501Y1749500D01*
X11592540Y1729815D01*
X11638295Y1677011D01*
X11649501Y1625500D01*
X11649501Y1602123D01*
X11655908Y1542516D01*
X11706202Y1407671D01*
X11706206Y1407664D01*
X11792452Y1292455D01*
X11792455Y1292452D01*
X11907664Y1206206D01*
X11907671Y1206202D01*
X12042517Y1155908D01*
X12042516Y1155908D01*
X12102116Y1149501D01*
X12102119Y1149500D01*
X12102127Y1149500D01*
X12102134Y1149500D01*
X12102135Y1149500D01*
X13897870Y1149500D01*
X13897876Y1149501D01*
X13957483Y1155908D01*
X14092328Y1206202D01*
X14092335Y1206206D01*
X14207544Y1292452D01*
X14207547Y1292455D01*
X14293793Y1407664D01*
X14293797Y1407671D01*
X14343002Y1539598D01*
X14384873Y1595531D01*
X14450337Y1619949D01*
X14518610Y1605098D01*
X14546865Y1583947D01*
X14668921Y1461891D01*
X14862421Y1326399D01*
X15076507Y1226570D01*
X15076513Y1226567D01*
X15289999Y1169364D01*
X15290000Y1169364D01*
X15290000Y2066988D01*
X15347007Y2034075D01*
X15474174Y2000000D01*
X15605826Y2000000D01*
X15732993Y2034075D01*
X15790000Y2066988D01*
X15790000Y1169364D01*
X16003486Y1226567D01*
X16003492Y1226570D01*
X16217578Y1326399D01*
X16411082Y1461894D01*
X16578105Y1628917D01*
X16708119Y1814594D01*
X16762697Y1858219D01*
X16832195Y1865411D01*
X16894550Y1833889D01*
X16911269Y1814594D01*
X17041505Y1628599D01*
X17041506Y1628597D01*
X17208597Y1461506D01*
X17208604Y1461501D01*
X17402165Y1325967D01*
X17402169Y1325965D01*
X17616335Y1226098D01*
X17616344Y1226094D01*
X17844586Y1164938D01*
X17844596Y1164936D01*
X18079999Y1144341D01*
X18080000Y1144341D01*
X18080001Y1144341D01*
X18315403Y1164936D01*
X18315413Y1164938D01*
X18543655Y1226094D01*
X18543659Y1226096D01*
X18543663Y1226097D01*
X18757830Y1325965D01*
X18757834Y1325967D01*
X18951395Y1461501D01*
X18951402Y1461506D01*
X19118493Y1628597D01*
X19118495Y1628599D01*
X19248425Y1814158D01*
X19303002Y1857782D01*
X19372501Y1864975D01*
X19434855Y1833453D01*
X19451575Y1814158D01*
X19581505Y1628599D01*
X19581506Y1628597D01*
X19748597Y1461506D01*
X19748604Y1461501D01*
X19942165Y1325967D01*
X19942169Y1325965D01*
X20156335Y1226098D01*
X20156344Y1226094D01*
X20384586Y1164938D01*
X20384596Y1164936D01*
X20619999Y1144341D01*
X20620000Y1144341D01*
X20620001Y1144341D01*
X20855403Y1164936D01*
X20855413Y1164938D01*
X21083655Y1226094D01*
X21083659Y1226096D01*
X21083663Y1226097D01*
X21297830Y1325965D01*
X21297834Y1325967D01*
X21491395Y1461501D01*
X21491402Y1461506D01*
X21658493Y1628597D01*
X21658495Y1628599D01*
X21794035Y1822170D01*
X21893903Y2036337D01*
X21955063Y2264592D01*
X21975659Y2500000D01*
X21955063Y2735408D01*
X21893903Y2963663D01*
X21794035Y3177829D01*
X21658495Y3371401D01*
X21491401Y3538495D01*
X21323377Y3656147D01*
X21279752Y3710724D01*
X21270500Y3757722D01*
X21270500Y3944071D01*
X21245502Y4069739D01*
X21245501Y4069739D01*
X21245501Y4069744D01*
X21225189Y4118779D01*
X21196466Y4188126D01*
X21125277Y4294669D01*
X20181624Y5238321D01*
X20148141Y5299642D01*
X20153125Y5369333D01*
X20194996Y5425267D01*
X20260461Y5449684D01*
X20269307Y5450000D01*
X20374293Y5450000D01*
X20619493Y5490916D01*
X20854603Y5571630D01*
X20854614Y5571635D01*
X21073229Y5689943D01*
X21120056Y5726389D01*
X21120057Y5726390D01*
X20420235Y6426212D01*
X20462292Y6437482D01*
X20587708Y6509890D01*
X20690110Y6612292D01*
X20762518Y6737708D01*
X20773787Y6779764D01*
X21473434Y6080116D01*
X21573731Y6233630D01*
X21673587Y6461282D01*
X21734612Y6702261D01*
X21734614Y6702270D01*
X21755141Y6949994D01*
X21755141Y6950005D01*
X21734614Y7197729D01*
X21734612Y7197738D01*
X21673587Y7438717D01*
X21573731Y7666369D01*
X21473434Y7819882D01*
X20773787Y7120235D01*
X20762518Y7162292D01*
X20690110Y7287708D01*
X20587708Y7390110D01*
X20462292Y7462518D01*
X20420234Y7473787D01*
X21120056Y8173609D01*
X21073231Y8210055D01*
X21073228Y8210057D01*
X20854614Y8328364D01*
X20854603Y8328369D01*
X20619493Y8409083D01*
X20374293Y8450000D01*
X20125707Y8450000D01*
X19880506Y8409083D01*
X19645396Y8328369D01*
X19645385Y8328364D01*
X19426770Y8210056D01*
X19426768Y8210055D01*
X19379942Y8173609D01*
X20079765Y7473787D01*
X20037708Y7462518D01*
X19912292Y7390110D01*
X19809890Y7287708D01*
X19737482Y7162292D01*
X19726212Y7120234D01*
X19026564Y7819882D01*
X18926266Y7666364D01*
X18826412Y7438717D01*
X18765387Y7197738D01*
X18765385Y7197729D01*
X18744859Y6950005D01*
X18744859Y6949994D01*
X18765385Y6702270D01*
X18765387Y6702261D01*
X18826412Y6461282D01*
X18926267Y6233632D01*
X19026564Y6080116D01*
X19726212Y6779764D01*
X19737482Y6737708D01*
X19809890Y6612292D01*
X19912292Y6509890D01*
X20037708Y6437482D01*
X20079765Y6426212D01*
X19440372Y5786819D01*
X19379049Y5753334D01*
X19352691Y5750500D01*
X18705068Y5750500D01*
X18639096Y5769506D01*
X18611542Y5786819D01*
X18549522Y5825789D01*
X18469377Y5853832D01*
X18379262Y5885366D01*
X18379258Y5885366D01*
X18379255Y5885368D01*
X18379251Y5885368D01*
X18379249Y5885369D01*
X18200004Y5905565D01*
X18199996Y5905565D01*
X18020750Y5885369D01*
X18020745Y5885368D01*
X17850478Y5825789D01*
X17697738Y5729816D01*
X17697737Y5729815D01*
X17637681Y5669759D01*
X17576358Y5636274D01*
X17506666Y5641258D01*
X17462319Y5669759D01*
X17442129Y5689949D01*
X17402262Y5729816D01*
X17249522Y5825789D01*
X17079255Y5885368D01*
X17079252Y5885368D01*
X17079249Y5885369D01*
X16900004Y5905565D01*
X16899996Y5905565D01*
X16720750Y5885369D01*
X16720745Y5885368D01*
X16550478Y5825789D01*
X16397738Y5729816D01*
X16397737Y5729815D01*
X16270184Y5602262D01*
X16174211Y5449523D01*
X16114631Y5279254D01*
X16114630Y5279249D01*
X16094435Y5100003D01*
X16094435Y5099996D01*
X16114630Y4920750D01*
X16114633Y4920737D01*
X16174209Y4750481D01*
X16174211Y4750477D01*
X16230494Y4660903D01*
X16249500Y4594931D01*
X16249500Y3853356D01*
X16229815Y3786317D01*
X16177011Y3740562D01*
X16107853Y3730618D01*
X16073095Y3740974D01*
X16003492Y3773429D01*
X16003483Y3773433D01*
X15790000Y3830633D01*
X15790000Y2933012D01*
X15732993Y2965925D01*
X15605826Y3000000D01*
X15474174Y3000000D01*
X15347007Y2965925D01*
X15290000Y2933012D01*
X15290000Y3830634D01*
X15076516Y3773433D01*
X15076507Y3773429D01*
X14862422Y3673600D01*
X14862420Y3673599D01*
X14668926Y3538113D01*
X14668920Y3538108D01*
X14546865Y3416053D01*
X14485542Y3382568D01*
X14415850Y3387552D01*
X14359917Y3429424D01*
X14343002Y3460402D01*
X14313875Y3538495D01*
X14293796Y3592331D01*
X14207546Y3707546D01*
X14092331Y3793796D01*
X13957483Y3844091D01*
X13897873Y3850500D01*
X12102128Y3850499D01*
X12053757Y3845299D01*
X12042516Y3844091D01*
X11907671Y3793797D01*
X11907664Y3793793D01*
X11792455Y3707547D01*
X11792452Y3707544D01*
X11706206Y3592335D01*
X11706202Y3592328D01*
X11655908Y3457482D01*
X11649501Y3397883D01*
X11649500Y3397864D01*
X11649500Y3374500D01*
X11629815Y3307461D01*
X11577011Y3261706D01*
X11525500Y3250500D01*
X7862229Y3250500D01*
X7795190Y3270185D01*
X7774548Y3286819D01*
X6258219Y4803148D01*
X6224734Y4864471D01*
X6221900Y4890829D01*
X6221900Y6950005D01*
X12244859Y6950005D01*
X12244859Y6949994D01*
X12265385Y6702270D01*
X12265387Y6702261D01*
X12326412Y6461282D01*
X12426267Y6233632D01*
X12526564Y6080116D01*
X13226212Y6779764D01*
X13237482Y6737708D01*
X13309890Y6612292D01*
X13412292Y6509890D01*
X13537708Y6437482D01*
X13579765Y6426212D01*
X12879942Y5726390D01*
X12879942Y5726388D01*
X12926761Y5689949D01*
X13145390Y5571632D01*
X13145396Y5571630D01*
X13380506Y5490916D01*
X13625707Y5450000D01*
X13874293Y5450000D01*
X14119493Y5490916D01*
X14354603Y5571630D01*
X14354614Y5571635D01*
X14573229Y5689943D01*
X14620056Y5726389D01*
X14620057Y5726390D01*
X13920235Y6426212D01*
X13962292Y6437482D01*
X14087708Y6509890D01*
X14190110Y6612292D01*
X14262518Y6737708D01*
X14273787Y6779764D01*
X14973434Y6080116D01*
X15073731Y6233630D01*
X15173587Y6461282D01*
X15234612Y6702261D01*
X15234614Y6702270D01*
X15255141Y6949994D01*
X15255141Y6950005D01*
X15234614Y7197729D01*
X15234612Y7197738D01*
X15173587Y7438717D01*
X15073731Y7666369D01*
X14973434Y7819882D01*
X14273787Y7120235D01*
X14262518Y7162292D01*
X14190110Y7287708D01*
X14087708Y7390110D01*
X13962292Y7462518D01*
X13920234Y7473787D01*
X14620056Y8173609D01*
X14573231Y8210055D01*
X14573228Y8210057D01*
X14354614Y8328364D01*
X14354603Y8328369D01*
X14119493Y8409083D01*
X13874293Y8450000D01*
X13625707Y8450000D01*
X13380506Y8409083D01*
X13145396Y8328369D01*
X13145385Y8328364D01*
X12926770Y8210056D01*
X12926768Y8210055D01*
X12879942Y8173609D01*
X13579765Y7473787D01*
X13537708Y7462518D01*
X13412292Y7390110D01*
X13309890Y7287708D01*
X13237482Y7162292D01*
X13226212Y7120234D01*
X12526564Y7819882D01*
X12426266Y7666364D01*
X12326412Y7438717D01*
X12265387Y7197738D01*
X12265385Y7197729D01*
X12244859Y6950005D01*
X6221900Y6950005D01*
X6221900Y11450005D01*
X12244357Y11450005D01*
X12244357Y11449994D01*
X12264890Y11202187D01*
X12264892Y11202175D01*
X12325936Y10961118D01*
X12425826Y10733393D01*
X12561833Y10525217D01*
X12730257Y10342261D01*
X12926493Y10189524D01*
X13145188Y10071172D01*
X13145197Y10071169D01*
X13380383Y9990429D01*
X13625665Y9949500D01*
X13874335Y9949500D01*
X14119616Y9990429D01*
X14354802Y10071169D01*
X14354811Y10071172D01*
X14573506Y10189524D01*
X14573509Y10189526D01*
X14769744Y10342262D01*
X14938164Y10525215D01*
X14938166Y10525217D01*
X15074173Y10733393D01*
X15074786Y10734525D01*
X15075157Y10734898D01*
X15076978Y10737686D01*
X15077551Y10737311D01*
X15124009Y10784112D01*
X15183837Y10799500D01*
X18816163Y10799500D01*
X18883202Y10779815D01*
X18922561Y10737384D01*
X18923022Y10737686D01*
X18924785Y10734987D01*
X18925214Y10734525D01*
X18925826Y10733393D01*
X19061833Y10525217D01*
X19230257Y10342261D01*
X19426493Y10189524D01*
X19645188Y10071172D01*
X19645197Y10071169D01*
X19880383Y9990429D01*
X20125665Y9949500D01*
X20374335Y9949500D01*
X20619616Y9990429D01*
X20854802Y10071169D01*
X20854811Y10071172D01*
X21073506Y10189524D01*
X21073509Y10189526D01*
X21269744Y10342262D01*
X21438164Y10525215D01*
X21438166Y10525217D01*
X21574173Y10733393D01*
X21674063Y10961118D01*
X21735107Y11202175D01*
X21735109Y11202187D01*
X21755643Y11449994D01*
X21755643Y11450005D01*
X21735109Y11697812D01*
X21735108Y11697815D01*
X21735108Y11697821D01*
X21674063Y11938881D01*
X21574173Y12166607D01*
X21438164Y12374785D01*
X21269744Y12557738D01*
X21073509Y12710474D01*
X20854810Y12828828D01*
X20619614Y12909571D01*
X20374335Y12950500D01*
X20125665Y12950500D01*
X19880386Y12909571D01*
X19645190Y12828828D01*
X19426491Y12710474D01*
X19230256Y12557738D01*
X19094245Y12409991D01*
X19061833Y12374782D01*
X18925826Y12166606D01*
X18925214Y12165475D01*
X18924842Y12165101D01*
X18923022Y12162314D01*
X18922448Y12162688D01*
X18875991Y12115888D01*
X18816163Y12100500D01*
X15183837Y12100500D01*
X15116798Y12120185D01*
X15077438Y12162615D01*
X15076978Y12162314D01*
X15075214Y12165012D01*
X15074786Y12165475D01*
X15074173Y12166606D01*
X15074173Y12166607D01*
X14938164Y12374785D01*
X14769744Y12557738D01*
X14573509Y12710474D01*
X14354810Y12828828D01*
X14119614Y12909571D01*
X13874335Y12950500D01*
X13625665Y12950500D01*
X13380386Y12909571D01*
X13145190Y12828828D01*
X12926491Y12710474D01*
X12730256Y12557738D01*
X12594245Y12409991D01*
X12561833Y12374782D01*
X12425826Y12166606D01*
X12325936Y11938881D01*
X12264892Y11697824D01*
X12264890Y11697812D01*
X12244357Y11450005D01*
X6221900Y11450005D01*
X6221900Y14918417D01*
X13025001Y14918417D01*
X13031408Y14847897D01*
X13031409Y14847892D01*
X13081981Y14685603D01*
X13169927Y14540122D01*
X13290122Y14419927D01*
X13435604Y14331980D01*
X13435603Y14331980D01*
X13597894Y14281409D01*
X13597893Y14281409D01*
X13668428Y14275000D01*
X13750000Y14275000D01*
X13750000Y14925000D01*
X13025001Y14925000D01*
X13025001Y14918417D01*
X6221900Y14918417D01*
X6221900Y15932298D01*
X6241585Y15999337D01*
X6274775Y16033872D01*
X6325696Y16069528D01*
X6342801Y16081505D01*
X6509895Y16248599D01*
X6639825Y16434158D01*
X6694402Y16477782D01*
X6763901Y16484975D01*
X6826255Y16453453D01*
X6842975Y16434158D01*
X6972905Y16248599D01*
X6972906Y16248597D01*
X7139997Y16081506D01*
X7140004Y16081501D01*
X7333565Y15945967D01*
X7333569Y15945965D01*
X7547735Y15846098D01*
X7547744Y15846094D01*
X7775986Y15784938D01*
X7775996Y15784936D01*
X8011399Y15764341D01*
X8011400Y15764341D01*
X8011401Y15764341D01*
X8246803Y15784936D01*
X8246813Y15784938D01*
X8475055Y15846094D01*
X8475059Y15846096D01*
X8475063Y15846097D01*
X8689230Y15945965D01*
X8689234Y15945967D01*
X8882795Y16081501D01*
X8882802Y16081506D01*
X8884477Y16083181D01*
X8885395Y16083682D01*
X8886944Y16084982D01*
X8887205Y16084670D01*
X8945800Y16116666D01*
X8972158Y16119500D01*
X13180188Y16119500D01*
X13247227Y16099815D01*
X13292982Y16047011D01*
X13302926Y15977853D01*
X13273901Y15914297D01*
X13267869Y15907819D01*
X13169927Y15809877D01*
X13081980Y15664395D01*
X13031409Y15502106D01*
X13025000Y15431572D01*
X13025000Y15425000D01*
X14126000Y15425000D01*
X14193039Y15405315D01*
X14238794Y15352511D01*
X14250000Y15301000D01*
X14250000Y14274999D01*
X14331582Y14275000D01*
X14331583Y14275001D01*
X14402102Y14281408D01*
X14402107Y14281409D01*
X14564396Y14331981D01*
X14709877Y14419927D01*
X14761965Y14472015D01*
X14823288Y14505500D01*
X14892980Y14500516D01*
X14937327Y14472015D01*
X14989810Y14419531D01*
X14989811Y14419530D01*
X15135393Y14331522D01*
X15297807Y14280913D01*
X15349145Y14276248D01*
X15368384Y14274500D01*
X15368387Y14274500D01*
X16031613Y14274500D01*
X16031616Y14274500D01*
X16052778Y14276423D01*
X16102192Y14280913D01*
X16102194Y14280913D01*
X16102196Y14280914D01*
X16264606Y14331522D01*
X16410185Y14419528D01*
X16410188Y14419530D01*
X16428839Y14438181D01*
X16490162Y14471666D01*
X16516520Y14474500D01*
X16583480Y14474500D01*
X16650519Y14454815D01*
X16671161Y14438181D01*
X16689810Y14419531D01*
X16689811Y14419530D01*
X16835393Y14331522D01*
X16997807Y14280913D01*
X17049145Y14276248D01*
X17068384Y14274500D01*
X17068387Y14274500D01*
X17731613Y14274500D01*
X17731616Y14274500D01*
X17737107Y14274999D01*
X19250000Y14274999D01*
X19331582Y14275000D01*
X19331583Y14275001D01*
X19402102Y14281408D01*
X19402107Y14281409D01*
X19564396Y14331981D01*
X19709877Y14419927D01*
X19830072Y14540122D01*
X19918019Y14685604D01*
X19968590Y14847893D01*
X19975000Y14918427D01*
X19975000Y14925000D01*
X19250000Y14925000D01*
X19250000Y14274999D01*
X17737107Y14274999D01*
X17752778Y14276423D01*
X17802192Y14280913D01*
X17802194Y14280913D01*
X17802196Y14280914D01*
X17964606Y14331522D01*
X18110185Y14419528D01*
X18112668Y14422011D01*
X18114935Y14423249D01*
X18116094Y14424157D01*
X18116244Y14423964D01*
X18173987Y14455499D01*
X18243679Y14450519D01*
X18284173Y14424498D01*
X18284217Y14424554D01*
X18284814Y14424086D01*
X18288028Y14422021D01*
X18290122Y14419927D01*
X18435604Y14331980D01*
X18435603Y14331980D01*
X18597894Y14281409D01*
X18597893Y14281409D01*
X18668428Y14275000D01*
X18750000Y14275000D01*
X18750000Y15301000D01*
X18769685Y15368039D01*
X18822489Y15413794D01*
X18874000Y15425000D01*
X19974999Y15425000D01*
X19974999Y15431582D01*
X19968591Y15502102D01*
X19968590Y15502107D01*
X19918018Y15664396D01*
X19830072Y15809877D01*
X19830071Y15809878D01*
X19727985Y15911963D01*
X19694499Y15973286D01*
X19699483Y16042977D01*
X19727984Y16087326D01*
X19830469Y16189811D01*
X19830470Y16189813D01*
X19830472Y16189815D01*
X19918478Y16335394D01*
X19969086Y16497804D01*
X19975500Y16568384D01*
X19975500Y17081616D01*
X19969086Y17152196D01*
X19918478Y17314606D01*
X19830472Y17460185D01*
X19710185Y17580472D01*
X19564606Y17668478D01*
X19402196Y17719086D01*
X19331616Y17725500D01*
X19331613Y17725500D01*
X19070808Y17725500D01*
X19003769Y17745185D01*
X18983127Y17761819D01*
X18086819Y18658127D01*
X18053334Y18719450D01*
X18050500Y18745808D01*
X18050500Y20376000D01*
X18070185Y20443039D01*
X18122989Y20488794D01*
X18174500Y20500000D01*
X18850000Y20500000D01*
X19350000Y20500000D01*
X20397844Y20500000D01*
X20457372Y20506401D01*
X20457379Y20506403D01*
X20592086Y20556645D01*
X20592093Y20556649D01*
X20707187Y20642809D01*
X20707190Y20642812D01*
X20793350Y20757906D01*
X20793354Y20757913D01*
X20843596Y20892620D01*
X20843598Y20892627D01*
X20849999Y20952155D01*
X20850000Y20952172D01*
X20850000Y21250000D01*
X19350000Y21250000D01*
X19350000Y20500000D01*
X18850000Y20500000D01*
X18850000Y21626000D01*
X18869685Y21693039D01*
X18922489Y21738794D01*
X18974000Y21750000D01*
X20850000Y21750000D01*
X20850000Y22047827D01*
X20849999Y22047844D01*
X20843598Y22107372D01*
X20843596Y22107379D01*
X20793354Y22242086D01*
X20793350Y22242093D01*
X20707190Y22357187D01*
X20707189Y22357188D01*
X20649439Y22400420D01*
X20607567Y22456353D01*
X20602583Y22526045D01*
X20636068Y22587368D01*
X20649437Y22598953D01*
X20707547Y22642455D01*
X20793793Y22757664D01*
X20793797Y22757671D01*
X20844089Y22892511D01*
X20844089Y22892512D01*
X20844091Y22892517D01*
X20844091Y22892521D01*
X20844834Y22895664D01*
X20846083Y22897858D01*
X20846802Y22899785D01*
X20847114Y22899668D01*
X20879406Y22956381D01*
X20941316Y22988768D01*
X20964973Y22991151D01*
X22374961Y22997281D01*
X22442085Y22977888D01*
G37*
%TD.AperFunction*%
%TD*%
D22*
X0Y45000000D02*
X23000000Y45000000D01*
X23000000Y0D01*
X0Y0D01*
X0Y45000000D01*
M02*
