%TF.GenerationSoftware,KiCad,Pcbnew,8.0.6*%
%TF.CreationDate,2024-10-25T11:33:00+01:00*%
%TF.ProjectId,ac-freedom_to-esphome,61632d66-7265-4656-946f-6d5f746f2d65,rev?*%
%TF.SameCoordinates,Original*%
%TF.FileFunction,Legend,Top*%
%TF.FilePolarity,Positive*%
%FSLAX46Y46*%
G04 Gerber Fmt 4.6, Leading zero omitted, Abs format (unit mm)*
G04 Created by KiCad (PCBNEW 8.0.6) date 2024-10-25 11:33:00*
%MOMM*%
%LPD*%
G01*
G04 APERTURE LIST*
%ADD10C,0.150000*%
%ADD11C,0.120000*%
%TA.AperFunction,Profile*%
%ADD12C,0.050000*%
%TD*%
G04 APERTURE END LIST*
D10*
X11541666Y5433966D02*
X11541666Y4933966D01*
X11541666Y4933966D02*
X11508333Y4833966D01*
X11508333Y4833966D02*
X11441666Y4767300D01*
X11441666Y4767300D02*
X11341666Y4733966D01*
X11341666Y4733966D02*
X11275000Y4733966D01*
X11841666Y5367300D02*
X11874999Y5400633D01*
X11874999Y5400633D02*
X11941666Y5433966D01*
X11941666Y5433966D02*
X12108333Y5433966D01*
X12108333Y5433966D02*
X12174999Y5400633D01*
X12174999Y5400633D02*
X12208333Y5367300D01*
X12208333Y5367300D02*
X12241666Y5300633D01*
X12241666Y5300633D02*
X12241666Y5233966D01*
X12241666Y5233966D02*
X12208333Y5133966D01*
X12208333Y5133966D02*
X11808333Y4733966D01*
X11808333Y4733966D02*
X12241666Y4733966D01*
X11366666Y18233966D02*
X11366666Y17733966D01*
X11366666Y17733966D02*
X11333333Y17633966D01*
X11333333Y17633966D02*
X11266666Y17567300D01*
X11266666Y17567300D02*
X11166666Y17533966D01*
X11166666Y17533966D02*
X11100000Y17533966D01*
X12066666Y17533966D02*
X11666666Y17533966D01*
X11866666Y17533966D02*
X11866666Y18233966D01*
X11866666Y18233966D02*
X11799999Y18133966D01*
X11799999Y18133966D02*
X11733333Y18067300D01*
X11733333Y18067300D02*
X11666666Y18033966D01*
X15583333Y13383966D02*
X15350000Y13717300D01*
X15183333Y13383966D02*
X15183333Y14083966D01*
X15183333Y14083966D02*
X15450000Y14083966D01*
X15450000Y14083966D02*
X15516667Y14050633D01*
X15516667Y14050633D02*
X15550000Y14017300D01*
X15550000Y14017300D02*
X15583333Y13950633D01*
X15583333Y13950633D02*
X15583333Y13850633D01*
X15583333Y13850633D02*
X15550000Y13783966D01*
X15550000Y13783966D02*
X15516667Y13750633D01*
X15516667Y13750633D02*
X15450000Y13717300D01*
X15450000Y13717300D02*
X15183333Y13717300D01*
X15850000Y14017300D02*
X15883333Y14050633D01*
X15883333Y14050633D02*
X15950000Y14083966D01*
X15950000Y14083966D02*
X16116667Y14083966D01*
X16116667Y14083966D02*
X16183333Y14050633D01*
X16183333Y14050633D02*
X16216667Y14017300D01*
X16216667Y14017300D02*
X16250000Y13950633D01*
X16250000Y13950633D02*
X16250000Y13883966D01*
X16250000Y13883966D02*
X16216667Y13783966D01*
X16216667Y13783966D02*
X15816667Y13383966D01*
X15816667Y13383966D02*
X16250000Y13383966D01*
X21021666Y20203966D02*
X21021666Y19637300D01*
X21021666Y19637300D02*
X21055000Y19570633D01*
X21055000Y19570633D02*
X21088333Y19537300D01*
X21088333Y19537300D02*
X21155000Y19503966D01*
X21155000Y19503966D02*
X21288333Y19503966D01*
X21288333Y19503966D02*
X21355000Y19537300D01*
X21355000Y19537300D02*
X21388333Y19570633D01*
X21388333Y19570633D02*
X21421666Y19637300D01*
X21421666Y19637300D02*
X21421666Y20203966D01*
X22121666Y19503966D02*
X21721666Y19503966D01*
X21921666Y19503966D02*
X21921666Y20203966D01*
X21921666Y20203966D02*
X21854999Y20103966D01*
X21854999Y20103966D02*
X21788333Y20037300D01*
X21788333Y20037300D02*
X21721666Y20003966D01*
X17283333Y13383966D02*
X17050000Y13717300D01*
X16883333Y13383966D02*
X16883333Y14083966D01*
X16883333Y14083966D02*
X17150000Y14083966D01*
X17150000Y14083966D02*
X17216667Y14050633D01*
X17216667Y14050633D02*
X17250000Y14017300D01*
X17250000Y14017300D02*
X17283333Y13950633D01*
X17283333Y13950633D02*
X17283333Y13850633D01*
X17283333Y13850633D02*
X17250000Y13783966D01*
X17250000Y13783966D02*
X17216667Y13750633D01*
X17216667Y13750633D02*
X17150000Y13717300D01*
X17150000Y13717300D02*
X16883333Y13717300D01*
X17950000Y13383966D02*
X17550000Y13383966D01*
X17750000Y13383966D02*
X17750000Y14083966D01*
X17750000Y14083966D02*
X17683333Y13983966D01*
X17683333Y13983966D02*
X17616667Y13917300D01*
X17616667Y13917300D02*
X17550000Y13883966D01*
X13883333Y13383966D02*
X13650000Y13717300D01*
X13483333Y13383966D02*
X13483333Y14083966D01*
X13483333Y14083966D02*
X13750000Y14083966D01*
X13750000Y14083966D02*
X13816667Y14050633D01*
X13816667Y14050633D02*
X13850000Y14017300D01*
X13850000Y14017300D02*
X13883333Y13950633D01*
X13883333Y13950633D02*
X13883333Y13850633D01*
X13883333Y13850633D02*
X13850000Y13783966D01*
X13850000Y13783966D02*
X13816667Y13750633D01*
X13816667Y13750633D02*
X13750000Y13717300D01*
X13750000Y13717300D02*
X13483333Y13717300D01*
X14483333Y13850633D02*
X14483333Y13383966D01*
X14316667Y14117300D02*
X14150000Y13617300D01*
X14150000Y13617300D02*
X14583333Y13617300D01*
X18883333Y13383966D02*
X18650000Y13717300D01*
X18483333Y13383966D02*
X18483333Y14083966D01*
X18483333Y14083966D02*
X18750000Y14083966D01*
X18750000Y14083966D02*
X18816667Y14050633D01*
X18816667Y14050633D02*
X18850000Y14017300D01*
X18850000Y14017300D02*
X18883333Y13950633D01*
X18883333Y13950633D02*
X18883333Y13850633D01*
X18883333Y13850633D02*
X18850000Y13783966D01*
X18850000Y13783966D02*
X18816667Y13750633D01*
X18816667Y13750633D02*
X18750000Y13717300D01*
X18750000Y13717300D02*
X18483333Y13717300D01*
X19116667Y14083966D02*
X19550000Y14083966D01*
X19550000Y14083966D02*
X19316667Y13817300D01*
X19316667Y13817300D02*
X19416667Y13817300D01*
X19416667Y13817300D02*
X19483333Y13783966D01*
X19483333Y13783966D02*
X19516667Y13750633D01*
X19516667Y13750633D02*
X19550000Y13683966D01*
X19550000Y13683966D02*
X19550000Y13517300D01*
X19550000Y13517300D02*
X19516667Y13450633D01*
X19516667Y13450633D02*
X19483333Y13417300D01*
X19483333Y13417300D02*
X19416667Y13383966D01*
X19416667Y13383966D02*
X19216667Y13383966D01*
X19216667Y13383966D02*
X19150000Y13417300D01*
X19150000Y13417300D02*
X19116667Y13450633D01*
X20066666Y4717300D02*
X20166666Y4683966D01*
X20166666Y4683966D02*
X20333333Y4683966D01*
X20333333Y4683966D02*
X20399999Y4717300D01*
X20399999Y4717300D02*
X20433333Y4750633D01*
X20433333Y4750633D02*
X20466666Y4817300D01*
X20466666Y4817300D02*
X20466666Y4883966D01*
X20466666Y4883966D02*
X20433333Y4950633D01*
X20433333Y4950633D02*
X20399999Y4983966D01*
X20399999Y4983966D02*
X20333333Y5017300D01*
X20333333Y5017300D02*
X20199999Y5050633D01*
X20199999Y5050633D02*
X20133333Y5083966D01*
X20133333Y5083966D02*
X20099999Y5117300D01*
X20099999Y5117300D02*
X20066666Y5183966D01*
X20066666Y5183966D02*
X20066666Y5250633D01*
X20066666Y5250633D02*
X20099999Y5317300D01*
X20099999Y5317300D02*
X20133333Y5350633D01*
X20133333Y5350633D02*
X20199999Y5383966D01*
X20199999Y5383966D02*
X20366666Y5383966D01*
X20366666Y5383966D02*
X20466666Y5350633D01*
X20700000Y5383966D02*
X20866666Y4683966D01*
X20866666Y4683966D02*
X21000000Y5183966D01*
X21000000Y5183966D02*
X21133333Y4683966D01*
X21133333Y4683966D02*
X21300000Y5383966D01*
X21933333Y4683966D02*
X21533333Y4683966D01*
X21733333Y4683966D02*
X21733333Y5383966D01*
X21733333Y5383966D02*
X21666666Y5283966D01*
X21666666Y5283966D02*
X21600000Y5217300D01*
X21600000Y5217300D02*
X21533333Y5183966D01*
D11*
%TO.C,J2*%
X11670000Y1170000D02*
X11670000Y2500000D01*
X13000000Y1170000D02*
X11670000Y1170000D01*
X14270000Y3830000D02*
X21950000Y3830000D01*
X14270000Y1170000D02*
X14270000Y3830000D01*
X14270000Y1170000D02*
X21950000Y1170000D01*
X21950000Y1170000D02*
X21950000Y3830000D01*
%TO.C,J1*%
X350000Y18300000D02*
X10650000Y18300000D01*
X350000Y300000D02*
X350000Y18300000D01*
X10650000Y18300000D02*
X10650000Y300000D01*
X10650000Y300000D02*
X350000Y300000D01*
%TO.C,R2*%
X15177500Y15762742D02*
X15177500Y16237258D01*
X16222500Y15762742D02*
X16222500Y16237258D01*
%TO.C,U1*%
X3380000Y44120000D02*
X19620000Y44120000D01*
X3380000Y36500000D02*
X3380000Y44120000D01*
X3380000Y19880000D02*
X3380000Y20500000D01*
X5500000Y19880000D02*
X3380000Y19880000D01*
X19620000Y44120000D02*
X19620000Y36500000D01*
X19620000Y20500000D02*
X19620000Y19880000D01*
X19620000Y19880000D02*
X17500000Y19880000D01*
X2950000Y36500000D02*
X2710000Y36836000D01*
X3190000Y36836000D01*
X2950000Y36500000D01*
G36*
X2950000Y36500000D02*
G01*
X2710000Y36836000D01*
X3190000Y36836000D01*
X2950000Y36500000D01*
G37*
%TO.C,R1*%
X16877500Y15762742D02*
X16877500Y16237258D01*
X17922500Y15762742D02*
X17922500Y16237258D01*
%TO.C,R4*%
X13477500Y16237258D02*
X13477500Y15762742D01*
X14522500Y16237258D02*
X14522500Y15762742D01*
%TO.C,R3*%
X18477500Y16237258D02*
X18477500Y15762742D01*
X19522500Y16237258D02*
X19522500Y15762742D01*
%TO.C,SW1*%
X13500000Y9950000D02*
X13500000Y8450000D01*
X14750000Y5950000D02*
X19250000Y5950000D01*
X19250000Y12450000D02*
X14750000Y12450000D01*
X20500000Y8450000D02*
X20500000Y9950000D01*
%TD*%
D12*
X0Y45000000D02*
X23000000Y45000000D01*
X23000000Y0D01*
X0Y0D01*
X0Y45000000D01*
M02*
