%TF.GenerationSoftware,KiCad,Pcbnew,8.0.6*%
%TF.CreationDate,2024-10-25T11:33:00+01:00*%
%TF.ProjectId,ac-freedom_to-esphome,61632d66-7265-4656-946f-6d5f746f2d65,rev?*%
%TF.SameCoordinates,Original*%
%TF.FileFunction,Soldermask,Top*%
%TF.FilePolarity,Negative*%
%FSLAX46Y46*%
G04 Gerber Fmt 4.6, Leading zero omitted, Abs format (unit mm)*
G04 Created by KiCad (PCBNEW 8.0.6) date 2024-10-25 11:33:00*
%MOMM*%
%LPD*%
G01*
G04 APERTURE LIST*
G04 Aperture macros list*
%AMRoundRect*
0 Rectangle with rounded corners*
0 $1 Rounding radius*
0 $2 $3 $4 $5 $6 $7 $8 $9 X,Y pos of 4 corners*
0 Add a 4 corners polygon primitive as box body*
4,1,4,$2,$3,$4,$5,$6,$7,$8,$9,$2,$3,0*
0 Add four circle primitives for the rounded corners*
1,1,$1+$1,$2,$3*
1,1,$1+$1,$4,$5*
1,1,$1+$1,$6,$7*
1,1,$1+$1,$8,$9*
0 Add four rect primitives between the rounded corners*
20,1,$1+$1,$2,$3,$4,$5,0*
20,1,$1+$1,$4,$5,$6,$7,0*
20,1,$1+$1,$6,$7,$8,$9,0*
20,1,$1+$1,$8,$9,$2,$3,0*%
G04 Aperture macros list end*
%ADD10R,1.700000X1.700000*%
%ADD11O,1.700000X1.700000*%
%ADD12C,1.700000*%
%ADD13RoundRect,0.200000X0.275000X-0.200000X0.275000X0.200000X-0.275000X0.200000X-0.275000X-0.200000X0*%
%ADD14R,2.500000X1.000000*%
%ADD15R,1.000000X1.800000*%
%ADD16RoundRect,0.200000X-0.275000X0.200000X-0.275000X-0.200000X0.275000X-0.200000X0.275000X0.200000X0*%
%ADD17C,2.000000*%
%TA.AperFunction,Profile*%
%ADD18C,0.050000*%
%TD*%
G04 APERTURE END LIST*
D10*
%TO.C,J2*%
X13000000Y2500000D03*
D11*
X15540000Y2500000D03*
X18080000Y2500000D03*
X20620000Y2500000D03*
%TD*%
D12*
%TO.C,J1*%
X8011400Y17120000D03*
X5471400Y17120000D03*
X2931400Y17120000D03*
%TD*%
D13*
%TO.C,R2*%
X15700000Y15175000D03*
X15700000Y16825000D03*
%TD*%
D14*
%TO.C,U1*%
X3900000Y35500000D03*
X3900000Y33500000D03*
X3900000Y31500000D03*
X3900000Y29500000D03*
X3900000Y27500000D03*
X3900000Y25500000D03*
X3900000Y23500000D03*
X3900000Y21500000D03*
D15*
X6500000Y20000000D03*
X8500000Y20000000D03*
X10500000Y20000000D03*
X12500000Y20000000D03*
X14500000Y20000000D03*
X16500000Y20000000D03*
D14*
X19100000Y21500000D03*
X19100000Y23500000D03*
X19100000Y25500000D03*
X19100000Y27500000D03*
X19100000Y29500000D03*
X19100000Y31500000D03*
X19100000Y33500000D03*
X19100000Y35500000D03*
%TD*%
D13*
%TO.C,R1*%
X17400000Y15175000D03*
X17400000Y16825000D03*
%TD*%
D16*
%TO.C,R4*%
X14000000Y16825000D03*
X14000000Y15175000D03*
%TD*%
%TO.C,R3*%
X19000000Y16825000D03*
X19000000Y15175000D03*
%TD*%
D17*
%TO.C,SW1*%
X13750000Y11450000D03*
X20250000Y11450000D03*
X13750000Y6950000D03*
X20250000Y6950000D03*
%TD*%
D18*
X0Y45000000D02*
X23000000Y45000000D01*
X23000000Y0D01*
X0Y0D01*
X0Y45000000D01*
M02*
